<svg xmlns="http://www.w3.org/2000/svg" width="1500" height="820" viewBox="0 0 1500 820">
<rect width="1500" height="820" fill="#ffffff"/>
<g font-family="DejaVu Sans, Arial, sans-serif" fill="#172b3a">
<text x="40" y="49" font-size="32" font-weight="bold" text-anchor="start" >Different alleles, same predicted-consequence score</text>
<text x="40" y="83" font-size="22" font-weight="normal" text-anchor="start" >TTN: morphing optimized seed 1 toward optimized seed 2</text>
<rect x="40" y="106" width="23" height="23" rx="6" fill="#e8edf2" stroke="#bdc9d3"/>
<text x="74" y="125" font-size="19" font-weight="normal" text-anchor="start" >Origin allele retained</text>
<rect x="334" y="106" width="23" height="23" rx="6" fill="#9edfe8" stroke="#317d8b"/>
<text x="368" y="125" font-size="19" font-weight="normal" text-anchor="start" >Target allele copied</text>
<text x="720" y="125" font-size="19" font-weight="normal" text-anchor="start" >Letters show the actual ALT at each position.</text>
<text x="40" y="177" font-size="21" font-weight="bold" text-anchor="start" >The 17 positions where the endpoints differ</text>
<text x="40" y="204" font-size="18" font-weight="normal" text-anchor="start" >GRCh37 chromosome 2 · 1-based positions · columns in genomic order, not to scale</text>
<text x="227" y="270" font-size="15" font-weight="normal" text-anchor="middle" >179395958</text>
<path d="M227,277 V347" stroke="#bdc9d3" fill="none"/>
<text x="285" y="310" font-size="15" font-weight="normal" text-anchor="middle" >179400895</text>
<path d="M285,317 V347" stroke="#bdc9d3" fill="none"/>
<text x="343" y="270" font-size="15" font-weight="normal" text-anchor="middle" >179421694</text>
<path d="M343,277 V347" stroke="#bdc9d3" fill="none"/>
<text x="401" y="310" font-size="15" font-weight="normal" text-anchor="middle" >179427186</text>
<path d="M401,317 V347" stroke="#bdc9d3" fill="none"/>
<text x="459" y="270" font-size="15" font-weight="normal" text-anchor="middle" >179430997</text>
<path d="M459,277 V347" stroke="#bdc9d3" fill="none"/>
<text x="517" y="310" font-size="15" font-weight="normal" text-anchor="middle" >179431797</text>
<path d="M517,317 V347" stroke="#bdc9d3" fill="none"/>
<text x="575" y="270" font-size="15" font-weight="normal" text-anchor="middle" >179432185</text>
<path d="M575,277 V347" stroke="#bdc9d3" fill="none"/>
<text x="633" y="310" font-size="15" font-weight="normal" text-anchor="middle" >179444939</text>
<path d="M633,317 V347" stroke="#bdc9d3" fill="none"/>
<text x="691" y="270" font-size="15" font-weight="normal" text-anchor="middle" >179447848</text>
<path d="M691,277 V347" stroke="#bdc9d3" fill="none"/>
<text x="749" y="310" font-size="15" font-weight="normal" text-anchor="middle" >179451420</text>
<path d="M749,317 V347" stroke="#bdc9d3" fill="none"/>
<text x="807" y="270" font-size="15" font-weight="normal" text-anchor="middle" >179497133</text>
<path d="M807,277 V347" stroke="#bdc9d3" fill="none"/>
<text x="865" y="310" font-size="15" font-weight="normal" text-anchor="middle" >179582327</text>
<path d="M865,317 V347" stroke="#bdc9d3" fill="none"/>
<text x="923" y="270" font-size="15" font-weight="normal" text-anchor="middle" >179587130</text>
<path d="M923,277 V347" stroke="#bdc9d3" fill="none"/>
<text x="981" y="310" font-size="15" font-weight="normal" text-anchor="middle" >179605180</text>
<path d="M981,317 V347" stroke="#bdc9d3" fill="none"/>
<text x="1039" y="270" font-size="15" font-weight="normal" text-anchor="middle" >179615887</text>
<path d="M1039,277 V347" stroke="#bdc9d3" fill="none"/>
<text x="1097" y="310" font-size="15" font-weight="normal" text-anchor="middle" >179615994</text>
<path d="M1097,317 V347" stroke="#bdc9d3" fill="none"/>
<text x="1155" y="270" font-size="15" font-weight="normal" text-anchor="middle" >179623758</text>
<path d="M1155,277 V347" stroke="#bdc9d3" fill="none"/>
<text x="40" y="327" font-size="19" font-weight="bold" text-anchor="start" >Morph amount</text>
<text x="1260" y="310" font-size="19" font-weight="bold" text-anchor="middle" >Copied</text>
<text x="1260" y="334" font-size="19" font-weight="bold" text-anchor="middle" >positions</text>
<text x="1400" y="310" font-size="19" font-weight="bold" text-anchor="middle" >Impact</text>
<text x="1400" y="334" font-size="19" font-weight="bold" text-anchor="middle" >score</text>
<text x="40" y="386" font-size="24" font-weight="bold" text-anchor="start" >0%</text>
<text x="110" y="386" font-size="17" font-weight="normal" text-anchor="start" >origin</text>
<rect x="203" y="355" width="48" height="45" rx="6" fill="#e8edf2" stroke="#bdc9d3"/>
<text x="227.0" y="386" font-size="25" font-weight="bold" text-anchor="middle" >A</text>
<rect x="261" y="355" width="48" height="45" rx="6" fill="#e8edf2" stroke="#bdc9d3"/>
<text x="285.0" y="386" font-size="25" font-weight="bold" text-anchor="middle" >G</text>
<rect x="319" y="355" width="48" height="45" rx="6" fill="#e8edf2" stroke="#bdc9d3"/>
<text x="343.0" y="386" font-size="25" font-weight="bold" text-anchor="middle" >T</text>
<rect x="377" y="355" width="48" height="45" rx="6" fill="#e8edf2" stroke="#bdc9d3"/>
<text x="401.0" y="386" font-size="25" font-weight="bold" text-anchor="middle" >C</text>
<rect x="435" y="355" width="48" height="45" rx="6" fill="#e8edf2" stroke="#bdc9d3"/>
<text x="459.0" y="386" font-size="25" font-weight="bold" text-anchor="middle" >T</text>
<rect x="493" y="355" width="48" height="45" rx="6" fill="#e8edf2" stroke="#bdc9d3"/>
<text x="517.0" y="386" font-size="25" font-weight="bold" text-anchor="middle" >C</text>
<rect x="551" y="355" width="48" height="45" rx="6" fill="#e8edf2" stroke="#bdc9d3"/>
<text x="575.0" y="386" font-size="25" font-weight="bold" text-anchor="middle" >C</text>
<rect x="609" y="355" width="48" height="45" rx="6" fill="#e8edf2" stroke="#bdc9d3"/>
<text x="633.0" y="386" font-size="25" font-weight="bold" text-anchor="middle" >A</text>
<rect x="667" y="355" width="48" height="45" rx="6" fill="#e8edf2" stroke="#bdc9d3"/>
<text x="691.0" y="386" font-size="25" font-weight="bold" text-anchor="middle" >G</text>
<rect x="725" y="355" width="48" height="45" rx="6" fill="#e8edf2" stroke="#bdc9d3"/>
<text x="749.0" y="386" font-size="25" font-weight="bold" text-anchor="middle" >C</text>
<rect x="783" y="355" width="48" height="45" rx="6" fill="#e8edf2" stroke="#bdc9d3"/>
<text x="807.0" y="386" font-size="25" font-weight="bold" text-anchor="middle" >G</text>
<rect x="841" y="355" width="48" height="45" rx="6" fill="#e8edf2" stroke="#bdc9d3"/>
<text x="865.0" y="386" font-size="25" font-weight="bold" text-anchor="middle" >G</text>
<rect x="899" y="355" width="48" height="45" rx="6" fill="#e8edf2" stroke="#bdc9d3"/>
<text x="923.0" y="386" font-size="25" font-weight="bold" text-anchor="middle" >A</text>
<rect x="957" y="355" width="48" height="45" rx="6" fill="#e8edf2" stroke="#bdc9d3"/>
<text x="981.0" y="386" font-size="25" font-weight="bold" text-anchor="middle" >G</text>
<rect x="1015" y="355" width="48" height="45" rx="6" fill="#e8edf2" stroke="#bdc9d3"/>
<text x="1039.0" y="386" font-size="25" font-weight="bold" text-anchor="middle" >A</text>
<rect x="1073" y="355" width="48" height="45" rx="6" fill="#e8edf2" stroke="#bdc9d3"/>
<text x="1097.0" y="386" font-size="25" font-weight="bold" text-anchor="middle" >A</text>
<rect x="1131" y="355" width="48" height="45" rx="6" fill="#e8edf2" stroke="#bdc9d3"/>
<text x="1155.0" y="386" font-size="25" font-weight="bold" text-anchor="middle" >A</text>
<text x="1260" y="386" font-size="24" font-weight="bold" text-anchor="middle" >0 / 17</text>
<text x="1400" y="386" font-size="24" font-weight="bold" text-anchor="middle" >34.69</text>
<text x="40" y="449" font-size="24" font-weight="bold" text-anchor="start" >25%</text>
<rect x="203" y="418" width="48" height="45" rx="6" fill="#9edfe8" stroke="#317d8b"/>
<text x="227.0" y="449" font-size="25" font-weight="bold" text-anchor="middle" >G</text>
<rect x="261" y="418" width="48" height="45" rx="6" fill="#e8edf2" stroke="#bdc9d3"/>
<text x="285.0" y="449" font-size="25" font-weight="bold" text-anchor="middle" >G</text>
<rect x="319" y="418" width="48" height="45" rx="6" fill="#e8edf2" stroke="#bdc9d3"/>
<text x="343.0" y="449" font-size="25" font-weight="bold" text-anchor="middle" >T</text>
<rect x="377" y="418" width="48" height="45" rx="6" fill="#e8edf2" stroke="#bdc9d3"/>
<text x="401.0" y="449" font-size="25" font-weight="bold" text-anchor="middle" >C</text>
<rect x="435" y="418" width="48" height="45" rx="6" fill="#9edfe8" stroke="#317d8b"/>
<text x="459.0" y="449" font-size="25" font-weight="bold" text-anchor="middle" >C</text>
<rect x="493" y="418" width="48" height="45" rx="6" fill="#e8edf2" stroke="#bdc9d3"/>
<text x="517.0" y="449" font-size="25" font-weight="bold" text-anchor="middle" >C</text>
<rect x="551" y="418" width="48" height="45" rx="6" fill="#e8edf2" stroke="#bdc9d3"/>
<text x="575.0" y="449" font-size="25" font-weight="bold" text-anchor="middle" >C</text>
<rect x="609" y="418" width="48" height="45" rx="6" fill="#9edfe8" stroke="#317d8b"/>
<text x="633.0" y="449" font-size="25" font-weight="bold" text-anchor="middle" >G</text>
<rect x="667" y="418" width="48" height="45" rx="6" fill="#e8edf2" stroke="#bdc9d3"/>
<text x="691.0" y="449" font-size="25" font-weight="bold" text-anchor="middle" >G</text>
<rect x="725" y="418" width="48" height="45" rx="6" fill="#e8edf2" stroke="#bdc9d3"/>
<text x="749.0" y="449" font-size="25" font-weight="bold" text-anchor="middle" >C</text>
<rect x="783" y="418" width="48" height="45" rx="6" fill="#e8edf2" stroke="#bdc9d3"/>
<text x="807.0" y="449" font-size="25" font-weight="bold" text-anchor="middle" >G</text>
<rect x="841" y="418" width="48" height="45" rx="6" fill="#9edfe8" stroke="#317d8b"/>
<text x="865.0" y="449" font-size="25" font-weight="bold" text-anchor="middle" >A</text>
<rect x="899" y="418" width="48" height="45" rx="6" fill="#e8edf2" stroke="#bdc9d3"/>
<text x="923.0" y="449" font-size="25" font-weight="bold" text-anchor="middle" >A</text>
<rect x="957" y="418" width="48" height="45" rx="6" fill="#e8edf2" stroke="#bdc9d3"/>
<text x="981.0" y="449" font-size="25" font-weight="bold" text-anchor="middle" >G</text>
<rect x="1015" y="418" width="48" height="45" rx="6" fill="#9edfe8" stroke="#317d8b"/>
<text x="1039.0" y="449" font-size="25" font-weight="bold" text-anchor="middle" >G</text>
<rect x="1073" y="418" width="48" height="45" rx="6" fill="#e8edf2" stroke="#bdc9d3"/>
<text x="1097.0" y="449" font-size="25" font-weight="bold" text-anchor="middle" >A</text>
<rect x="1131" y="418" width="48" height="45" rx="6" fill="#e8edf2" stroke="#bdc9d3"/>
<text x="1155.0" y="449" font-size="25" font-weight="bold" text-anchor="middle" >A</text>
<text x="1260" y="449" font-size="24" font-weight="bold" text-anchor="middle" >5 / 17</text>
<text x="1400" y="449" font-size="24" font-weight="bold" text-anchor="middle" >34.69</text>
<text x="40" y="512" font-size="24" font-weight="bold" text-anchor="start" >50%</text>
<rect x="203" y="481" width="48" height="45" rx="6" fill="#9edfe8" stroke="#317d8b"/>
<text x="227.0" y="512" font-size="25" font-weight="bold" text-anchor="middle" >G</text>
<rect x="261" y="481" width="48" height="45" rx="6" fill="#e8edf2" stroke="#bdc9d3"/>
<text x="285.0" y="512" font-size="25" font-weight="bold" text-anchor="middle" >G</text>
<rect x="319" y="481" width="48" height="45" rx="6" fill="#e8edf2" stroke="#bdc9d3"/>
<text x="343.0" y="512" font-size="25" font-weight="bold" text-anchor="middle" >T</text>
<rect x="377" y="481" width="48" height="45" rx="6" fill="#9edfe8" stroke="#317d8b"/>
<text x="401.0" y="512" font-size="25" font-weight="bold" text-anchor="middle" >T</text>
<rect x="435" y="481" width="48" height="45" rx="6" fill="#9edfe8" stroke="#317d8b"/>
<text x="459.0" y="512" font-size="25" font-weight="bold" text-anchor="middle" >C</text>
<rect x="493" y="481" width="48" height="45" rx="6" fill="#9edfe8" stroke="#317d8b"/>
<text x="517.0" y="512" font-size="25" font-weight="bold" text-anchor="middle" >G</text>
<rect x="551" y="481" width="48" height="45" rx="6" fill="#e8edf2" stroke="#bdc9d3"/>
<text x="575.0" y="512" font-size="25" font-weight="bold" text-anchor="middle" >C</text>
<rect x="609" y="481" width="48" height="45" rx="6" fill="#9edfe8" stroke="#317d8b"/>
<text x="633.0" y="512" font-size="25" font-weight="bold" text-anchor="middle" >G</text>
<rect x="667" y="481" width="48" height="45" rx="6" fill="#e8edf2" stroke="#bdc9d3"/>
<text x="691.0" y="512" font-size="25" font-weight="bold" text-anchor="middle" >G</text>
<rect x="725" y="481" width="48" height="45" rx="6" fill="#e8edf2" stroke="#bdc9d3"/>
<text x="749.0" y="512" font-size="25" font-weight="bold" text-anchor="middle" >C</text>
<rect x="783" y="481" width="48" height="45" rx="6" fill="#9edfe8" stroke="#317d8b"/>
<text x="807.0" y="512" font-size="25" font-weight="bold" text-anchor="middle" >A</text>
<rect x="841" y="481" width="48" height="45" rx="6" fill="#9edfe8" stroke="#317d8b"/>
<text x="865.0" y="512" font-size="25" font-weight="bold" text-anchor="middle" >A</text>
<rect x="899" y="481" width="48" height="45" rx="6" fill="#e8edf2" stroke="#bdc9d3"/>
<text x="923.0" y="512" font-size="25" font-weight="bold" text-anchor="middle" >A</text>
<rect x="957" y="481" width="48" height="45" rx="6" fill="#e8edf2" stroke="#bdc9d3"/>
<text x="981.0" y="512" font-size="25" font-weight="bold" text-anchor="middle" >G</text>
<rect x="1015" y="481" width="48" height="45" rx="6" fill="#9edfe8" stroke="#317d8b"/>
<text x="1039.0" y="512" font-size="25" font-weight="bold" text-anchor="middle" >G</text>
<rect x="1073" y="481" width="48" height="45" rx="6" fill="#9edfe8" stroke="#317d8b"/>
<text x="1097.0" y="512" font-size="25" font-weight="bold" text-anchor="middle" >G</text>
<rect x="1131" y="481" width="48" height="45" rx="6" fill="#e8edf2" stroke="#bdc9d3"/>
<text x="1155.0" y="512" font-size="25" font-weight="bold" text-anchor="middle" >A</text>
<text x="1260" y="512" font-size="24" font-weight="bold" text-anchor="middle" >9 / 17</text>
<text x="1400" y="512" font-size="24" font-weight="bold" text-anchor="middle" >34.69</text>
<text x="40" y="575" font-size="24" font-weight="bold" text-anchor="start" >75%</text>
<rect x="203" y="544" width="48" height="45" rx="6" fill="#9edfe8" stroke="#317d8b"/>
<text x="227.0" y="575" font-size="25" font-weight="bold" text-anchor="middle" >G</text>
<rect x="261" y="544" width="48" height="45" rx="6" fill="#9edfe8" stroke="#317d8b"/>
<text x="285.0" y="575" font-size="25" font-weight="bold" text-anchor="middle" >A</text>
<rect x="319" y="544" width="48" height="45" rx="6" fill="#9edfe8" stroke="#317d8b"/>
<text x="343.0" y="575" font-size="25" font-weight="bold" text-anchor="middle" >C</text>
<rect x="377" y="544" width="48" height="45" rx="6" fill="#9edfe8" stroke="#317d8b"/>
<text x="401.0" y="575" font-size="25" font-weight="bold" text-anchor="middle" >T</text>
<rect x="435" y="544" width="48" height="45" rx="6" fill="#9edfe8" stroke="#317d8b"/>
<text x="459.0" y="575" font-size="25" font-weight="bold" text-anchor="middle" >C</text>
<rect x="493" y="544" width="48" height="45" rx="6" fill="#9edfe8" stroke="#317d8b"/>
<text x="517.0" y="575" font-size="25" font-weight="bold" text-anchor="middle" >G</text>
<rect x="551" y="544" width="48" height="45" rx="6" fill="#e8edf2" stroke="#bdc9d3"/>
<text x="575.0" y="575" font-size="25" font-weight="bold" text-anchor="middle" >C</text>
<rect x="609" y="544" width="48" height="45" rx="6" fill="#9edfe8" stroke="#317d8b"/>
<text x="633.0" y="575" font-size="25" font-weight="bold" text-anchor="middle" >G</text>
<rect x="667" y="544" width="48" height="45" rx="6" fill="#9edfe8" stroke="#317d8b"/>
<text x="691.0" y="575" font-size="25" font-weight="bold" text-anchor="middle" >A</text>
<rect x="725" y="544" width="48" height="45" rx="6" fill="#e8edf2" stroke="#bdc9d3"/>
<text x="749.0" y="575" font-size="25" font-weight="bold" text-anchor="middle" >C</text>
<rect x="783" y="544" width="48" height="45" rx="6" fill="#9edfe8" stroke="#317d8b"/>
<text x="807.0" y="575" font-size="25" font-weight="bold" text-anchor="middle" >A</text>
<rect x="841" y="544" width="48" height="45" rx="6" fill="#9edfe8" stroke="#317d8b"/>
<text x="865.0" y="575" font-size="25" font-weight="bold" text-anchor="middle" >A</text>
<rect x="899" y="544" width="48" height="45" rx="6" fill="#e8edf2" stroke="#bdc9d3"/>
<text x="923.0" y="575" font-size="25" font-weight="bold" text-anchor="middle" >A</text>
<rect x="957" y="544" width="48" height="45" rx="6" fill="#9edfe8" stroke="#317d8b"/>
<text x="981.0" y="575" font-size="25" font-weight="bold" text-anchor="middle" >A</text>
<rect x="1015" y="544" width="48" height="45" rx="6" fill="#9edfe8" stroke="#317d8b"/>
<text x="1039.0" y="575" font-size="25" font-weight="bold" text-anchor="middle" >G</text>
<rect x="1073" y="544" width="48" height="45" rx="6" fill="#9edfe8" stroke="#317d8b"/>
<text x="1097.0" y="575" font-size="25" font-weight="bold" text-anchor="middle" >G</text>
<rect x="1131" y="544" width="48" height="45" rx="6" fill="#e8edf2" stroke="#bdc9d3"/>
<text x="1155.0" y="575" font-size="25" font-weight="bold" text-anchor="middle" >A</text>
<text x="1260" y="575" font-size="24" font-weight="bold" text-anchor="middle" >13 / 17</text>
<text x="1400" y="575" font-size="24" font-weight="bold" text-anchor="middle" >34.69</text>
<text x="40" y="638" font-size="24" font-weight="bold" text-anchor="start" >100%</text>
<text x="112" y="638" font-size="17" font-weight="normal" text-anchor="start" >target</text>
<rect x="203" y="607" width="48" height="45" rx="6" fill="#9edfe8" stroke="#317d8b"/>
<text x="227.0" y="638" font-size="25" font-weight="bold" text-anchor="middle" >G</text>
<rect x="261" y="607" width="48" height="45" rx="6" fill="#9edfe8" stroke="#317d8b"/>
<text x="285.0" y="638" font-size="25" font-weight="bold" text-anchor="middle" >A</text>
<rect x="319" y="607" width="48" height="45" rx="6" fill="#9edfe8" stroke="#317d8b"/>
<text x="343.0" y="638" font-size="25" font-weight="bold" text-anchor="middle" >C</text>
<rect x="377" y="607" width="48" height="45" rx="6" fill="#9edfe8" stroke="#317d8b"/>
<text x="401.0" y="638" font-size="25" font-weight="bold" text-anchor="middle" >T</text>
<rect x="435" y="607" width="48" height="45" rx="6" fill="#9edfe8" stroke="#317d8b"/>
<text x="459.0" y="638" font-size="25" font-weight="bold" text-anchor="middle" >C</text>
<rect x="493" y="607" width="48" height="45" rx="6" fill="#9edfe8" stroke="#317d8b"/>
<text x="517.0" y="638" font-size="25" font-weight="bold" text-anchor="middle" >G</text>
<rect x="551" y="607" width="48" height="45" rx="6" fill="#9edfe8" stroke="#317d8b"/>
<text x="575.0" y="638" font-size="25" font-weight="bold" text-anchor="middle" >T</text>
<rect x="609" y="607" width="48" height="45" rx="6" fill="#9edfe8" stroke="#317d8b"/>
<text x="633.0" y="638" font-size="25" font-weight="bold" text-anchor="middle" >G</text>
<rect x="667" y="607" width="48" height="45" rx="6" fill="#9edfe8" stroke="#317d8b"/>
<text x="691.0" y="638" font-size="25" font-weight="bold" text-anchor="middle" >A</text>
<rect x="725" y="607" width="48" height="45" rx="6" fill="#9edfe8" stroke="#317d8b"/>
<text x="749.0" y="638" font-size="25" font-weight="bold" text-anchor="middle" >T</text>
<rect x="783" y="607" width="48" height="45" rx="6" fill="#9edfe8" stroke="#317d8b"/>
<text x="807.0" y="638" font-size="25" font-weight="bold" text-anchor="middle" >A</text>
<rect x="841" y="607" width="48" height="45" rx="6" fill="#9edfe8" stroke="#317d8b"/>
<text x="865.0" y="638" font-size="25" font-weight="bold" text-anchor="middle" >A</text>
<rect x="899" y="607" width="48" height="45" rx="6" fill="#9edfe8" stroke="#317d8b"/>
<text x="923.0" y="638" font-size="25" font-weight="bold" text-anchor="middle" >T</text>
<rect x="957" y="607" width="48" height="45" rx="6" fill="#9edfe8" stroke="#317d8b"/>
<text x="981.0" y="638" font-size="25" font-weight="bold" text-anchor="middle" >A</text>
<rect x="1015" y="607" width="48" height="45" rx="6" fill="#9edfe8" stroke="#317d8b"/>
<text x="1039.0" y="638" font-size="25" font-weight="bold" text-anchor="middle" >G</text>
<rect x="1073" y="607" width="48" height="45" rx="6" fill="#9edfe8" stroke="#317d8b"/>
<text x="1097.0" y="638" font-size="25" font-weight="bold" text-anchor="middle" >G</text>
<rect x="1131" y="607" width="48" height="45" rx="6" fill="#9edfe8" stroke="#317d8b"/>
<text x="1155.0" y="638" font-size="25" font-weight="bold" text-anchor="middle" >G</text>
<text x="1260" y="638" font-size="24" font-weight="bold" text-anchor="middle" >17 / 17</text>
<text x="1400" y="638" font-size="24" font-weight="bold" text-anchor="middle" >34.69</text>
<rect x="40" y="695" width="1420" height="92" rx="6" fill="#f4f7f9" stroke="none"/>
<text x="59" y="725" font-size="20" font-weight="bold" text-anchor="start" >At 25%, five columns have switched to the target allele. At 100%, all seventeen have switched.</text>
<text x="59" y="752" font-size="18" font-weight="normal" text-anchor="start" >The other 35 positions are unchanged and omitted here; each score includes all 52 positions (67 ALT copies).</text>
<text x="59" y="776" font-size="17" font-weight="normal" text-anchor="start" >One run per amount, each from a fresh origin copy. Fixed ordering seed: 20260912. Equal scores do not establish equal function.</text>
</g></svg>
